<mxfile host="app.diagrams.net" agent="Mozilla/5.0 (Windows NT 10.0; Win64; x64) AppleWebKit/537.36 (KHTML, like Gecko) Chrome/141.0.0.0 Safari/537.36 Edg/141.0.0.0" version="27.1.6">
  <diagram name="第 1 页" id="Q9Vvluypt1qK72KKxV5g">
    <mxGraphModel dx="618" dy="339" grid="1" gridSize="10" guides="1" tooltips="1" connect="1" arrows="1" fold="1" page="1" pageScale="1" pageWidth="2339" pageHeight="3300" math="0" shadow="0">
      <root>
        <mxCell id="0" />
        <mxCell id="1" parent="0" />
        <mxCell id="rF2lCyAzm6cQ2iIT8YVP-6" style="edgeStyle=orthogonalEdgeStyle;rounded=0;orthogonalLoop=1;jettySize=auto;html=1;exitX=1;exitY=0.25;exitDx=0;exitDy=0;entryX=0;entryY=0.25;entryDx=0;entryDy=0;" edge="1" parent="1" source="rF2lCyAzm6cQ2iIT8YVP-2" target="rF2lCyAzm6cQ2iIT8YVP-3">
          <mxGeometry relative="1" as="geometry" />
        </mxCell>
        <mxCell id="rF2lCyAzm6cQ2iIT8YVP-7" value="①、发送消息" style="edgeLabel;html=1;align=center;verticalAlign=middle;resizable=0;points=[];" vertex="1" connectable="0" parent="rF2lCyAzm6cQ2iIT8YVP-6">
          <mxGeometry x="-0.2421" y="-1" relative="1" as="geometry">
            <mxPoint as="offset" />
          </mxGeometry>
        </mxCell>
        <mxCell id="rF2lCyAzm6cQ2iIT8YVP-12" style="edgeStyle=orthogonalEdgeStyle;rounded=0;orthogonalLoop=1;jettySize=auto;html=1;exitX=1;exitY=0.75;exitDx=0;exitDy=0;entryX=0;entryY=0.75;entryDx=0;entryDy=0;" edge="1" parent="1" source="rF2lCyAzm6cQ2iIT8YVP-2" target="rF2lCyAzm6cQ2iIT8YVP-3">
          <mxGeometry relative="1" as="geometry" />
        </mxCell>
        <mxCell id="rF2lCyAzm6cQ2iIT8YVP-13" value="④、Commit OR Rollback" style="edgeLabel;html=1;align=center;verticalAlign=middle;resizable=0;points=[];" vertex="1" connectable="0" parent="rF2lCyAzm6cQ2iIT8YVP-12">
          <mxGeometry x="-0.3648" y="-2" relative="1" as="geometry">
            <mxPoint x="41" as="offset" />
          </mxGeometry>
        </mxCell>
        <mxCell id="rF2lCyAzm6cQ2iIT8YVP-21" style="edgeStyle=orthogonalEdgeStyle;rounded=0;orthogonalLoop=1;jettySize=auto;html=1;exitX=0.75;exitY=0;exitDx=0;exitDy=0;entryX=0.5;entryY=0;entryDx=0;entryDy=0;strokeColor=#FF0000;" edge="1" parent="1" source="rF2lCyAzm6cQ2iIT8YVP-2" target="rF2lCyAzm6cQ2iIT8YVP-3">
          <mxGeometry relative="1" as="geometry" />
        </mxCell>
        <mxCell id="rF2lCyAzm6cQ2iIT8YVP-22" value="⑦、根据事务状态Commit/Rollback" style="edgeLabel;html=1;align=center;verticalAlign=middle;resizable=0;points=[];" vertex="1" connectable="0" parent="rF2lCyAzm6cQ2iIT8YVP-21">
          <mxGeometry x="-0.2152" y="-1" relative="1" as="geometry">
            <mxPoint as="offset" />
          </mxGeometry>
        </mxCell>
        <mxCell id="rF2lCyAzm6cQ2iIT8YVP-2" value="MQ发送方" style="whiteSpace=wrap;html=1;aspect=fixed;" vertex="1" parent="1">
          <mxGeometry x="320" y="300" width="80" height="80" as="geometry" />
        </mxCell>
        <mxCell id="rF2lCyAzm6cQ2iIT8YVP-8" style="edgeStyle=orthogonalEdgeStyle;rounded=0;orthogonalLoop=1;jettySize=auto;html=1;entryX=1;entryY=0.5;entryDx=0;entryDy=0;" edge="1" parent="1" source="rF2lCyAzm6cQ2iIT8YVP-3" target="rF2lCyAzm6cQ2iIT8YVP-2">
          <mxGeometry relative="1" as="geometry" />
        </mxCell>
        <mxCell id="rF2lCyAzm6cQ2iIT8YVP-9" value="②、消息发送成功" style="edgeLabel;html=1;align=center;verticalAlign=middle;resizable=0;points=[];" vertex="1" connectable="0" parent="rF2lCyAzm6cQ2iIT8YVP-8">
          <mxGeometry x="0.0198" y="-1" relative="1" as="geometry">
            <mxPoint as="offset" />
          </mxGeometry>
        </mxCell>
        <mxCell id="rF2lCyAzm6cQ2iIT8YVP-17" style="edgeStyle=orthogonalEdgeStyle;rounded=0;orthogonalLoop=1;jettySize=auto;html=1;entryX=0.75;entryY=1;entryDx=0;entryDy=0;strokeColor=#FF0000;" edge="1" parent="1" source="rF2lCyAzm6cQ2iIT8YVP-3" target="rF2lCyAzm6cQ2iIT8YVP-2">
          <mxGeometry relative="1" as="geometry">
            <Array as="points">
              <mxPoint x="705" y="400" />
              <mxPoint x="380" y="400" />
            </Array>
          </mxGeometry>
        </mxCell>
        <mxCell id="rF2lCyAzm6cQ2iIT8YVP-18" value="⑤、未收到④的确认时，回查事务状态" style="edgeLabel;html=1;align=center;verticalAlign=middle;resizable=0;points=[];" vertex="1" connectable="0" parent="rF2lCyAzm6cQ2iIT8YVP-17">
          <mxGeometry x="0.0263" y="2" relative="1" as="geometry">
            <mxPoint as="offset" />
          </mxGeometry>
        </mxCell>
        <mxCell id="rF2lCyAzm6cQ2iIT8YVP-23" style="edgeStyle=orthogonalEdgeStyle;rounded=0;orthogonalLoop=1;jettySize=auto;html=1;entryX=0;entryY=0.5;entryDx=0;entryDy=0;" edge="1" parent="1" source="rF2lCyAzm6cQ2iIT8YVP-3" target="rF2lCyAzm6cQ2iIT8YVP-5">
          <mxGeometry relative="1" as="geometry" />
        </mxCell>
        <mxCell id="rF2lCyAzm6cQ2iIT8YVP-26" value="Commit:投递消息" style="edgeLabel;html=1;align=center;verticalAlign=middle;resizable=0;points=[];" vertex="1" connectable="0" parent="rF2lCyAzm6cQ2iIT8YVP-23">
          <mxGeometry x="-0.355" relative="1" as="geometry">
            <mxPoint x="26" as="offset" />
          </mxGeometry>
        </mxCell>
        <mxCell id="rF2lCyAzm6cQ2iIT8YVP-27" style="edgeStyle=orthogonalEdgeStyle;rounded=0;orthogonalLoop=1;jettySize=auto;html=1;exitX=1;exitY=0.75;exitDx=0;exitDy=0;" edge="1" parent="1" source="rF2lCyAzm6cQ2iIT8YVP-3">
          <mxGeometry relative="1" as="geometry">
            <mxPoint x="800" y="460" as="targetPoint" />
          </mxGeometry>
        </mxCell>
        <mxCell id="rF2lCyAzm6cQ2iIT8YVP-28" value="Rollback:删消息不投递" style="edgeLabel;html=1;align=center;verticalAlign=middle;resizable=0;points=[];" vertex="1" connectable="0" parent="rF2lCyAzm6cQ2iIT8YVP-27">
          <mxGeometry x="-0.017" y="1" relative="1" as="geometry">
            <mxPoint y="11" as="offset" />
          </mxGeometry>
        </mxCell>
        <mxCell id="rF2lCyAzm6cQ2iIT8YVP-3" value="MQ服务端" style="shape=dataStorage;whiteSpace=wrap;html=1;fixedSize=1;" vertex="1" parent="1">
          <mxGeometry x="650" y="300" width="110" height="80" as="geometry" />
        </mxCell>
        <mxCell id="rF2lCyAzm6cQ2iIT8YVP-4" value="本地事务" style="shape=cylinder3;whiteSpace=wrap;html=1;boundedLbl=1;backgroundOutline=1;size=15;direction=south;" vertex="1" parent="1">
          <mxGeometry x="100" y="297.5" width="90" height="85" as="geometry" />
        </mxCell>
        <mxCell id="rF2lCyAzm6cQ2iIT8YVP-5" value="MQ订阅方" style="whiteSpace=wrap;html=1;aspect=fixed;" vertex="1" parent="1">
          <mxGeometry x="930" y="300" width="80" height="80" as="geometry" />
        </mxCell>
        <mxCell id="rF2lCyAzm6cQ2iIT8YVP-10" style="edgeStyle=orthogonalEdgeStyle;rounded=0;orthogonalLoop=1;jettySize=auto;html=1;entryX=0.5;entryY=0;entryDx=0;entryDy=0;entryPerimeter=0;" edge="1" parent="1" source="rF2lCyAzm6cQ2iIT8YVP-2" target="rF2lCyAzm6cQ2iIT8YVP-4">
          <mxGeometry relative="1" as="geometry" />
        </mxCell>
        <mxCell id="rF2lCyAzm6cQ2iIT8YVP-11" value="③、执行本地事务" style="edgeLabel;html=1;align=center;verticalAlign=middle;resizable=0;points=[];" vertex="1" connectable="0" parent="rF2lCyAzm6cQ2iIT8YVP-10">
          <mxGeometry x="0.0384" y="-1" relative="1" as="geometry">
            <mxPoint as="offset" />
          </mxGeometry>
        </mxCell>
        <mxCell id="rF2lCyAzm6cQ2iIT8YVP-19" style="edgeStyle=orthogonalEdgeStyle;rounded=0;orthogonalLoop=1;jettySize=auto;html=1;exitX=0.25;exitY=1;exitDx=0;exitDy=0;entryX=1;entryY=0.5;entryDx=0;entryDy=0;entryPerimeter=0;strokeColor=#FF0000;" edge="1" parent="1" source="rF2lCyAzm6cQ2iIT8YVP-2" target="rF2lCyAzm6cQ2iIT8YVP-4">
          <mxGeometry relative="1" as="geometry" />
        </mxCell>
        <mxCell id="rF2lCyAzm6cQ2iIT8YVP-20" value="⑥、查询本地事务状态" style="edgeLabel;html=1;align=center;verticalAlign=middle;resizable=0;points=[];" vertex="1" connectable="0" parent="rF2lCyAzm6cQ2iIT8YVP-19">
          <mxGeometry x="0.0277" y="-2" relative="1" as="geometry">
            <mxPoint as="offset" />
          </mxGeometry>
        </mxCell>
      </root>
    </mxGraphModel>
  </diagram>
</mxfile>
